<svg xmlns="http://www.w3.org/2000/svg" viewBox="0 0 1000 1000"><defs><style>.cls-1{fill:#fdc226}.cls-2{fill:#fff}.cls-3{fill:#6d6e71}</style></defs><g id="Layer_2" data-name="Layer 2"><path class="cls-1" d="M714.84,630.73H285.16c-32.73,0-53.19-35.44-36.84-63.79L463.18,194.82c16.36-28.35,57.28-28.35,73.64,0L751.68,566.94C768,595.29,747.57,630.73,714.84,630.73Z"/><polygon class="cls-2" points="425.2 496.05 308.14 496.05 443.52 621.05 443.53 619.44 425.2 496.05"/><polygon class="cls-2" points="605.67 493.1 691.86 493.1 639.49 444.77 605.67 493.1"/><polygon class="cls-2" points="443.72 621.23 443.81 621.31 443.78 621.17 443.72 621.23"/><polygon class="cls-2" points="443.51 621.41 443.72 621.23 443.52 621.05 443.51 621.41"/><polygon class="cls-2" points="443.53 619.44 443.78 621.17 443.84 621.12 443.81 621.31 443.85 621.11 639.49 444.77 445.96 273.51 443.53 619.44"/><polygon class="cls-1" points="443.78 621.17 443.81 621.31 443.84 621.12 443.78 621.17"/><polygon class="cls-1" points="443.53 619.44 443.52 621.05 443.72 621.23 443.78 621.17 443.53 619.44"/><path class="cls-3" d="M249.55,711.7v4.12A10.46,10.46,0,0,0,260,726.26h34.11a5.57,5.57,0,0,1,0,11.13H260a21.56,21.56,0,0,1-21.57-21.57V696.53a21.85,21.85,0,0,1,21.75-21.74h25.69a18.46,18.46,0,0,1,0,36.91Zm0-11.13h36.3a7.32,7.32,0,0,0,0-14.64H260.16a10.64,10.64,0,0,0-10.61,10.6Z"/><path class="cls-3" d="M376.68,691.8a27.39,27.39,0,0,1,2.19,10.87v29.11a5.57,5.57,0,1,1-11.13,0V702.67A16.8,16.8,0,0,0,351,685.93H340.91a16.8,16.8,0,0,0-16.75,16.74v29.11a5.51,5.51,0,0,1-5.52,5.61,5.59,5.59,0,0,1-5.61-5.61V702.67a29.05,29.05,0,0,1,2.19-10.87,29.91,29.91,0,0,1,6-8.86,27.72,27.72,0,0,1,8.86-6,28.7,28.7,0,0,1,10.87-2.19H351A28.7,28.7,0,0,1,361.86,677a27.83,27.83,0,0,1,8.86,6A29.91,29.91,0,0,1,376.68,691.8Z"/><path class="cls-3" d="M449.19,680.93a20.7,20.7,0,0,1,6.05,14.82v36a5.51,5.51,0,0,1-5.52,5.61,5.6,5.6,0,0,1-5.62-5.61V711.7H407.9a7.28,7.28,0,0,0,0,14.56h14.46a5.57,5.57,0,1,1,0,11.13H407.9a18.41,18.41,0,1,1,0-36.82h36.2v-4.82a9.78,9.78,0,0,0-9.73-9.82H399.65A5.58,5.58,0,0,1,394,680.4a5.65,5.65,0,0,1,5.61-5.61h34.72A20.82,20.82,0,0,1,449.19,680.93Z"/><path class="cls-3" d="M476.9,706.09a20.17,20.17,0,0,0,20.16,20.17H526a5.57,5.57,0,1,1,0,11.13H497.06A31.13,31.13,0,0,1,475,728.27a31,31,0,0,1-6.75-10,31.43,31.43,0,0,1,0-24.38A31.62,31.62,0,0,1,475,684a29.44,29.44,0,0,1,9.91-6.75,32.07,32.07,0,0,1,12.18-2.46H526a5.65,5.65,0,0,1,5.61,5.61,5.58,5.58,0,0,1-5.61,5.53H497.06A20.22,20.22,0,0,0,476.9,706.09Z"/><path class="cls-3" d="M607.1,680.4a5.5,5.5,0,0,1-5.52,5.53H579.74v45.85a5.51,5.51,0,0,1-5.52,5.61,5.59,5.59,0,0,1-5.61-5.61V685.93H546.87a5.59,5.59,0,0,1-5.62-5.53,5.66,5.66,0,0,1,5.62-5.61h54.71A5.57,5.57,0,0,1,607.1,680.4Z"/><path class="cls-3" d="M685.22,680.4v25.69a34.48,34.48,0,0,1-1.93,11.84,28.73,28.73,0,0,1-6,10.17c-5.61,6-13.59,9.29-23.06,9.29h-3.95c-9.47,0-17.36-3.24-23-9.29a30.51,30.51,0,0,1-6.05-10.17,37.06,37.06,0,0,1-1.93-11.84V680.4a5.66,5.66,0,0,1,5.62-5.61,5.58,5.58,0,0,1,5.52,5.61v25.69c0,9.73,5.26,20.17,19.81,20.17h3.95c14.64,0,19.81-10.44,19.81-20.17V680.4a5.66,5.66,0,0,1,5.62-5.61A5.57,5.57,0,0,1,685.22,680.4Z"/><path class="cls-3" d="M761.59,719a18.46,18.46,0,0,1-18.41,18.41H705a5.57,5.57,0,1,1,0-11.13h38.14a7.28,7.28,0,0,0,0-14.56h-29a18.46,18.46,0,0,1,0-36.91h38.14a5.58,5.58,0,0,1,5.53,5.61,5.51,5.51,0,0,1-5.53,5.53H714.15a7.32,7.32,0,0,0,0,14.64h29A18.46,18.46,0,0,1,761.59,719Z"/><path class="cls-3" d="M248.45,800.75v4.12a10.46,10.46,0,0,0,10.44,10.43H293a5.57,5.57,0,0,1,0,11.14h-34.1a21.54,21.54,0,0,1-21.57-21.57V785.58a21.85,21.85,0,0,1,21.74-21.74h25.69a18.46,18.46,0,0,1,0,36.91Zm0-11.14h36.3a7.32,7.32,0,0,0,0-14.64H259.06a10.65,10.65,0,0,0-10.61,10.61Z"/><path class="cls-3" d="M397.5,780.85a27.36,27.36,0,0,1,2.2,10.87v29.11a5.57,5.57,0,1,1-11.14,0V791.72A16.8,16.8,0,0,0,371.81,775H361.73A16.8,16.8,0,0,0,345,791.72v29.11a5.53,5.53,0,0,1-5.53,5.61,5.6,5.6,0,0,1-5.61-5.61V791.72A29,29,0,0,1,336,780.85a29.85,29.85,0,0,1,6-8.86,27.78,27.78,0,0,1,8.86-6,28.7,28.7,0,0,1,10.87-2.19h10.08A28.71,28.71,0,0,1,382.69,766a27.62,27.62,0,0,1,8.85,6A29.66,29.66,0,0,1,397.5,780.85Z"/><path class="cls-3" d="M497.11,808a18.47,18.47,0,0,1-18.42,18.41H440.55a5.57,5.57,0,1,1,0-11.14h38.14a7.28,7.28,0,1,0,0-14.55h-29a18.46,18.46,0,0,1,0-36.91h38.14a5.58,5.58,0,0,1,5.53,5.61,5.5,5.5,0,0,1-5.53,5.52H449.67a7.32,7.32,0,0,0,0,14.64h29A18.48,18.48,0,0,1,497.11,808Z"/><path class="cls-3" d="M553,775V815.3h10.17a5.57,5.57,0,1,1,0,11.14H531.65a5.57,5.57,0,1,1,0-11.14h10.17V775H531.65a5.57,5.57,0,0,1-5.61-5.52,5.65,5.65,0,0,1,5.61-5.61h31.48a5.6,5.6,0,0,1,5.61,5.61,5.52,5.52,0,0,1-5.61,5.52Z"/><path class="cls-3" d="M659.22,770a20.74,20.74,0,0,1,6,14.82v36a5.52,5.52,0,0,1-5.52,5.61,5.6,5.6,0,0,1-5.61-5.61V800.75H617.93a7.28,7.28,0,1,0,0,14.55h14.46a5.57,5.57,0,1,1,0,11.14H617.93a18.42,18.42,0,1,1,0-36.83h36.21v-4.82a9.79,9.79,0,0,0-9.73-9.82H609.69a5.58,5.58,0,0,1-5.62-5.52,5.66,5.66,0,0,1,5.62-5.61h34.72A20.82,20.82,0,0,1,659.22,770Z"/><path class="cls-3" d="M762.68,808a18.46,18.46,0,0,1-18.41,18.41H706.13a5.57,5.57,0,1,1,0-11.14h38.14a7.28,7.28,0,1,0,0-14.55h-29a18.46,18.46,0,0,1,0-36.91h38.14a5.57,5.57,0,0,1,5.52,5.61,5.49,5.49,0,0,1-5.52,5.52H715.25a7.32,7.32,0,0,0,0,14.64h29A18.47,18.47,0,0,1,762.68,808Z"/></g></svg>