<svg version="1.1" id="Layer_1" xmlns="http://www.w3.org/2000/svg" x="0px" y="0px" viewBox="0 0 1000 1000" style="enable-background:new 0 0 1000 1000" xml:space="preserve"><style>.st0{fill-rule:evenodd;clip-rule:evenodd;fill:#006EB6}.st1{fill-rule:evenodd;clip-rule:evenodd;fill:#FFFFFF}</style><rect class="st0" width="1000" height="1000"/><polygon class="st1" points="387.6,391.6 428.7,391.6 428.7,540.4 387.6,540.4"/><polygon class="st1" points="450.3,540.4 450.3,391.6 563.8,391.6 563.8,420.4 491.8,420.4 491.8,451 558,451 558,480.2 491.8,480.2 491.8,511.5 563.8,511.5 563.8,540.4"/><polygon class="st1" points="586.9,540.4 586.9,391.6 700.4,391.6 700.4,420.4 628.3,420.4 628.3,451 694.7,451 694.7,480.2 628.3,480.2 628.3,511.5 700.4,511.5 700.4,540.4"/><polygon class="st1" points="723.5,540.4 723.5,391.6 837,391.6 837,420.4 764.9,420.4 764.9,451 831.2,451 831.2,480.2 764.9,480.2 764.9,511.5 837,511.5 837,540.4"/><path class="st1" d="M192.6,630.9c0,1.5-0.1,2.9-0.4,4.3l-0.4,0.4h-23.4l-0.4-0.4c0-4.3,0.4-7.6,0.4-18c0-9.4,0-14.8-0.4-21.3	l0.4-0.4h23.8l0.4,0.4c0,1.8-0.4,2.5-0.4,4.3l-0.4,0.4c-7.2-0.4-9.7-0.4-16.9-0.4v11.9h15.9l0.4,0.4c-0.3,1.4-0.4,2.9-0.4,4.3	l-0.4,0.4H175v13.3c8.6,0,10.5,0,17.7-0.4V630.9z"/><path class="st1" d="M230.5,635.2l-0.4,0.4h-6.8l-0.4-0.4c-3.2-5.8-6.8-11.9-10.1-17.7l-9-15.9l0.7,19.5c-0.1,2.4,0.1,4.8,0.4,7.2	c-0.1,2.4,0,4.8,0.4,7.2l-0.4,0.4h-5.4l-0.4-0.4c0.4-5.4,0.4-10.8,0.4-16.2c0-7.6,0-15.5-0.4-23.1l0.4-0.4h7.2l0.7,0.4	c4,6.8,7.9,14.1,11.5,20.5l6.8,12.3l-0.7-19.1c-0.4-9-0.4-10.1-0.4-14.1l0.4-0.4h5.4l0.4,0.4c0,6.8-0.4,14.1-0.4,20.9V635.2z"/><path class="st1" d="M254.6,612.8c4,1.8,9.7,4.3,9.7,11.5c0,6.5-4.7,11.9-14.4,11.9c-3.9,0.1-7.7-0.8-11.2-2.5l-0.4-0.4	c0.3-1.7,0.4-3.4,0.4-5l0.7-0.4c2.9,2.2,6.5,3.3,10.1,3.2c5.8,0,8.3-2.9,8.3-6.5c0-3.6-3.2-5.4-6.8-6.8l-2.9-1.1	c-4-1.8-9.4-4.3-9.4-11.2c0-2.1,0.6-4.1,1.8-5.8c2.9-3.5,7.3-5.4,11.9-5c3.4-0.1,6.9,0.6,10.1,1.8l0.4,0.4c-0.3,1.7-0.4,3.4-0.4,5	h-1.1c-2.9-1.6-6.1-2.4-9.4-2.5c-4.7,0-7.6,2.2-7.6,5.4c0.1,1.9,1.2,3.5,2.9,4.3c1.4,0.8,2.8,1.5,4.3,2.2L254.6,612.8z"/><path class="st1" d="M277.7,595.9c0,4-0.4,8.3-0.4,18c0,10.8,0,15.5,0.4,21.3l-0.4,0.4h-6.1l-0.4-0.4c0-3.6,0.4-6.5,0.4-13.7	c0-8.6,0-16.9-0.4-25.6l0.4-0.4h6.1L277.7,595.9z"/><path class="st1" d="M304,596.6c1.8,6.1,4,13.3,5.8,18.7c1.8,5.4,4.7,14.1,6.1,19.5l-0.4,0.4c-2.2-0.1-4.3,0-6.5,0.4l-0.4-0.4	c-1.4-5.4-1.8-6.8-3.2-11.9h-14.1c-1.8,5.4-1.8,6.8-3.2,11.5l-0.4,0.4H282l-0.4-0.4c0-0.7,0.4-1.1,0.7-1.8	c2.2-6.1,4.3-12.3,6.1-18.4c3.2-10.1,4.7-13.7,6.1-19.1l0.4-0.4c2.6,0.1,5.3-0.1,7.9-0.4l0.4,0.4L304,596.6z M292.8,618.6H304	l-5.4-19.1L292.8,618.6z"/><path class="st1" d="M334.6,612.8c4,1.8,9.7,4.3,9.7,11.5c0,6.5-4.7,11.9-14.4,11.9c-3.9,0.1-7.7-0.8-11.2-2.5l-0.4-0.4	c0.3-1.7,0.4-3.4,0.4-5l0.7-0.4c2.9,2.2,6.5,3.3,10.1,3.2c5.8,0,8.3-2.9,8.3-6.5c0-3.6-3.2-5.4-6.8-6.8l-2.9-1.1	c-4-1.8-9.4-4.3-9.4-11.2c0-2.1,0.6-4.1,1.8-5.8c2.9-3.5,7.3-5.4,11.9-5c3.4-0.1,6.9,0.6,10.1,1.8l0.4,0.4c-0.3,1.7-0.4,3.4-0.4,5	h-1.1c-2.9-1.6-6.1-2.4-9.4-2.5c-4.7,0-7.6,2.2-7.6,5.4c0.1,1.9,1.2,3.5,2.9,4.3c1.4,0.8,2.8,1.5,4.3,2.2L334.6,612.8z"/><path class="st1" d="M381.8,612.8c4,1.8,9.7,4.3,9.7,11.5c0,6.5-4.7,11.9-14.4,11.9c-3.9,0.1-7.7-0.8-11.2-2.5l-0.4-0.4	c0.3-1.7,0.4-3.4,0.4-5l0.7-0.4c2.9,2.2,6.5,3.3,10.1,3.2c5.8,0,8.3-2.9,8.3-6.5c0-3.6-3.2-5.4-6.8-6.8l-2.9-1.1	c-4.3-1.8-9.7-4.3-9.7-11.2c0-2.1,0.6-4.1,1.8-5.8c2.9-3.5,7.3-5.4,11.9-5c3.4-0.1,6.9,0.6,10.1,1.8l0.4,0.4c-0.3,1.7-0.4,3.4-0.4,5	h-0.7c-2.9-1.6-6.1-2.4-9.4-2.5c-4.7,0-7.6,2.2-7.6,5.4c0.1,1.9,1.2,3.5,2.9,4.3c1.4,0.8,2.8,1.5,4.3,2.2L381.8,612.8z"/><path class="st1" d="M420.4,600.6H410v11.5c0,14.1,0.4,19.8,0.4,23.1l-0.4,0.4h-6.5l-0.4-0.4c0.4-7.9,0.4-15.9,0.4-23.8v-11.2	c-3.5-0.1-7,0.1-10.5,0.4l-0.4-0.4c0-1.5,0.1-2.9,0.4-4.3l0.4-0.4h27.7l0.4,0.4c0,1.8-0.4,2.5-0.4,4.3L420.4,600.6z"/><path class="st1" d="M455.4,595.9v24.5c0.4,4.2-0.7,8.5-3.2,11.9c-3.1,2.9-7.3,4.4-11.5,4.3c-4.6,0.4-9.1-1.3-12.3-4.7	c-2.9-3.6-2.9-6.8-2.9-13.3v-22.3l0.4-0.4h6.5l0.4,0.4c-0.4,5.8-0.4,16.2-0.4,21.6c0,5.4,0,9,2.2,11.5c1.9,1.9,4.5,3,7.2,2.9	c3.3,0.3,6.4-1.4,7.9-4.3c1-3.3,1.4-6.7,1.1-10.1c0-6.5,0-14.8-0.4-21.3l0.4-0.4h5L455.4,595.9z"/><path class="st1" d="M465.4,635.5l-0.4-0.4c0-4.7,0.4-8.6,0.4-14.8c0-15.9-0.4-20.5-0.4-24.5l0.4-0.4h8.3c6.5,0,12.6,0,17.3,2.9	c7.6,4.7,7.6,14.1,7.6,16.2c0.1,3.2-0.4,6.4-1.4,9.4c-2.6,6.9-9.2,11.5-16.6,11.5c-3.5,0.4-7,0.6-10.5,0.4L465.4,635.5z M490,622.6	c1-2.6,1.5-5.5,1.4-8.3c1.1-6.7-3.4-12.9-10-14.1c-1.3-0.2-2.7-0.2-4,0h-5.4v30.6C479.1,630.9,486.7,631.2,490,622.6z"/><path class="st1" d="M529.6,630.9c0,1.5-0.1,2.9-0.4,4.3l-0.4,0.4h-23.4l-0.4-0.4c0-4.3,0.4-7.6,0.4-18c0-9.4,0-14.8-0.4-21.3	l0.4-0.4h23.8l0.4,0.4c0,1.8-0.4,2.5-0.4,4.3l-0.4,0.4c-7.2-0.4-9.7-0.4-16.9-0.4v11.9h15.9l0.4,0.4c-0.3,1.4-0.4,2.9-0.4,4.3	l-0.4,0.4h-15.5v13.3c8.6,0,10.5,0,17.7-0.4L529.6,630.9z"/><path class="st1" d="M567.4,635.2l-0.4,0.4h-6.8l-0.4-0.4c-3.2-5.8-6.8-11.9-10.1-17.7l-9-15.9l0.7,19.5c-0.1,2.4,0.1,4.8,0.4,7.2	c-0.1,2.4,0,4.8,0.4,7.2l-0.4,0.4h-5.4l-0.4-0.4c0.4-5.4,0.4-10.8,0.4-16.2c0-7.6,0-15.5-0.4-23.1l0.4-0.4h7.2l0.7,0.4	c4,6.8,7.9,14.1,11.5,20.5l6.8,12.3l-0.4-18.7c-0.4-9-0.4-10.1-0.4-14.1l0.4-0.4h5.4l0.4,0.4c0,6.8-0.4,14.1-0.4,20.9V633	L567.4,635.2z"/><path class="st1" d="M599.1,600.6h-10.5v11.5c0,14.1,0.4,19.8,0.4,23.1l-0.4,0.4h-6.5l-0.4-0.4c0.4-7.9,0.4-15.9,0.4-23.8v-11.2	c-3.5-0.1-7,0.1-10.5,0.4l-0.4-0.4c0-1.5,0.1-2.9,0.4-4.3l0.4-0.4h27.7l0.4,0.4c0,1.8-0.4,2.5-0.4,4.3L599.1,600.6z"/><path class="st1" d="M620.8,635.5l-0.4-0.4v-27.4c0.1-4,0-7.9-0.4-11.9l0.4-0.4h11.9c3.3-0.3,6.7,0.3,9.7,1.8	c2.8,1.5,4.5,4.4,4.3,7.6c-0.1,4.8-3.6,8.8-8.3,9.7c5.5-0.3,10.2,3.9,10.4,9.4c0,0.1,0,0.2,0,0.3c0.1,4.8-3,9-7.6,10.5	c-3.4,1-6.9,1.3-10.5,1.1L620.8,635.5z M626.9,612.5c5,0,9,0,11.5-1.8c1.5-1.2,2.3-3.1,2.2-5c-0.1-1.4-0.6-2.8-1.4-4	c-2-1.4-4.4-2-6.8-1.8h-5.4L626.9,612.5L626.9,612.5z M626.9,617.5c0,6.5,0,7.6,0.4,13.7h1.1c3.3,0.2,6.5,0,9.7-0.7	c2.7-0.8,4.4-3.3,4.3-6.1c0-6.5-7.2-6.8-10.1-6.8C632.3,617.5,626.9,617.5,626.9,617.5z"/><path class="st1" d="M663.7,635.5h-6.1l-0.4-0.4c0-5.4,0.4-11.2,0.4-16.6c0-12.6-0.4-17.3-0.7-22.7l0.4-0.4H668c3-0.2,6.1,0.2,9,1.1	c4.5,1.2,7.5,5.4,7.2,10.1c0,4.7-2.5,9-9.7,11.2c1.1,1.4,5.4,7.6,6.5,9.4c1.8,2.5,2.5,3.6,6.1,8.3l-0.4,0.7h-3.6	c-1.2-0.1-2.4,0.1-3.6,0.4l-0.4-0.4c-0.4-0.4-0.4-0.7-0.7-1.1c-1.8-2.9-3.6-5.8-5.4-8.3c-1.5-2.6-3.2-5.1-5-7.6h-4	c0,3.2,0,11.9,0.4,16.6L663.7,635.5z M675.2,611.8c1.4-1.1,2.2-2.9,2.2-4.7c-0.1-1.4-0.4-2.7-1.1-4c-1.8-2.9-4.7-2.9-9-2.9h-3.6	v13.7C668,613.9,672.7,613.9,675.2,611.8z"/><path class="st1" d="M710.5,596.6c1.8,6.1,4,13.3,5.8,18.7c1.8,5.4,4.7,14.1,6.1,19.5l-0.4,0.4c-2.2-0.1-4.3,0-6.5,0.4l-0.4-0.4	c-1.4-5.4-1.8-6.8-3.2-11.9h-14.1c-1.8,5.4-1.8,6.8-3.2,11.5l-0.4,0.4h-5.8l-0.4-0.4c0-0.7,0.4-1.1,0.7-1.8	c2.2-6.1,4.3-12.3,6.1-18.4c3.2-10.1,4.7-13.7,6.1-19.1l0.4-0.4c2.6,0.1,5.3-0.1,7.9-0.4l0.4,0.4L710.5,596.6z M699.3,618.6h11.2	l-5.4-19.1L699.3,618.6z"/><path class="st1" d="M758.1,635.2l-0.4,0.4h-6.8l-0.4-0.4c-3.2-5.8-6.8-11.9-10.1-17.7l-9-15.9l0.7,19.5c-0.1,2.4,0.1,4.8,0.4,7.2	c-0.1,2.4,0,4.8,0.4,7.2l-0.4,0.4h-5.4l-0.4-0.4c0.4-5.4,0.4-10.8,0.4-16.2c0-7.6,0-15.5-0.4-23.1l0.4-0.4h7.2l0.7,0.4	c4,6.8,7.9,14.1,11.5,20.5l6.8,12.3l-0.4-18.7c-0.4-9-0.4-10.1-0.4-14.1l0.4-0.4h5.4l0.4,0.4c0,6.8-0.4,14.1-0.4,20.9V633	L758.1,635.2z"/><path class="st1" d="M796.3,628c-0.3,1.9-0.4,3.8-0.4,5.8l-0.4,0.4c-3.3,1.7-7.1,2.6-10.8,2.5c-12.3,0-19.8-8.3-19.8-20.9	c-0.2-5.5,1.6-10.8,5-15.1c3.8-4.1,9.2-6.2,14.8-5.8c3.6-0.1,7.1,0.6,10.5,1.8l0.4,0.4c-0.3,1.7-0.4,3.4-0.4,5l-0.4,0.4	c-2.7-1.7-5.8-2.6-9-2.5c-9,0-14.1,6.1-14.1,15.9c0,10.8,5.8,15.5,13.7,15.5c3.8,0.1,7.5-1.2,10.5-3.6L796.3,628z"/><path class="st1" d="M833.4,635.5h-6.5l-0.4-0.4c0-6.5,0.4-13.3,0.4-19.1h-18.7c0,10.8,0,14.4,0.4,18.7l-0.4,0.4h-6.5l-0.4-0.4	c0.4-5.4,0.4-8.3,0.4-25.6c0.1-4.6,0-9.1-0.4-13.7l0.4-0.4h6.1l0.4,0.4v15.9h18.4c0.2-5.2,0.1-10.3-0.4-15.5l0.4-0.4h6.1l0.4,0.4	c0,5.4-0.4,9-0.4,19.1c0,10.8,0.4,15.1,0.7,20.2V635.5z"/><path class="st1" d="M265.8,561.7c-1.2,1.9-3.7,2.5-5.6,1.3c-0.5-0.3-1-0.8-1.3-1.3c-25-37.3-57.1-69.4-94.4-94.4	c-1.9-1.2-2.5-3.7-1.3-5.6c0.3-0.5,0.8-1,1.3-1.3c37.4-24.9,69.5-57,94.4-94.4c1.2-1.9,3.7-2.5,5.6-1.3c0.5,0.3,1,0.8,1.3,1.3	c24.9,37.4,57,69.5,94.4,94.4c1.9,1.2,2.5,3.7,1.3,5.6c-0.3,0.5-0.8,1-1.3,1.3C322.8,492.1,290.6,524.2,265.8,561.7z"/><path d="M259.7,386.2c0.8-1.4,2.5-1.9,3.9-1.1c0.5,0.3,0.9,0.7,1.1,1.1c19.3,28.8,43.7,53.7,72.1,73.5	c1.5,0.8,2.1,2.7,1.3,4.1c-0.3,0.5-0.7,1-1.3,1.3c-6,4.4-11.6,9.2-16.9,14.4c-7.1,6.4-13.8,13.1-20.2,20.2	c-11.5,11.5-24.5,23.8-35,38.9c-0.8,1.5-2.7,2.1-4.1,1.3c-0.5-0.3-1-0.7-1.3-1.3c-10.8-15.9-24.9-28.8-37.1-40.7	c-6.1-6.1-29.6-28.1-35.3-32.4c-1.4-0.9-1.9-2.8-1-4.2c0.3-0.5,0.8-0.9,1.4-1.2C215.7,440.1,240.3,415,259.7,386.2z" style="fill-rule:evenodd;clip-rule:evenodd;fill:#CCE2F0"/><path d="M260.8,406c1.1-1.4,2.5-1.1,3.6,0.4c13.4,20.3,30.4,38,50.1,52.3c2.5,1.8,0,4.3-1.1,5.8	c-2.5,2.5-27.7,28.5-33.9,34.6s-13,13.7-22,9.4c-4.8-2.6-9.2-6-13-10.1c-5.8-5.4-32.8-33.5-34.2-35.7c-1-1-1-2.6-0.1-3.6	c0.1-0.1,0.3-0.2,0.4-0.3C230.1,444.9,246.7,425.8,260.8,406z" style="fill-rule:evenodd;clip-rule:evenodd;fill:#99C5E2"/><path d="M261.5,429.4c0.4-0.7,1.4-0.4,1.8,0.4c6.8,10.1,18.4,24.5,28.1,31.4c1.4,1.4,1.4,3.6,0,5	c-5,7.2-14.1,19.5-29.2,19.5c-13,0-27-14.4-29.9-18.7c-2.2-3.2-0.4-5,0.7-5.4C243.1,454.3,254.6,439.5,261.5,429.4z" style="fill-rule:evenodd;clip-rule:evenodd;fill:#66A8D3"/><polygon class="st0" points="244.9,471.9 249.2,464.3 253.5,456.8 262.2,441.6 271.2,456.8 275.5,464.3 279.8,471.9 262.2,471.9"/></svg>