<svg version="1.1" id="Layer_1" xmlns="http://www.w3.org/2000/svg" x="0px" y="0px" viewBox="0 0 246.5 115.5" style="enable-background:new 0 0 246.5 115.5" xml:space="preserve"><style>.st0{fill-rule:evenodd;clip-rule:evenodd;fill:#006EB6}</style><polygon class="st0" points="92.1,27.6 103.5,27.6 103.5,68.9 92.1,68.9 92.1,27.6"/><polygon class="st0" points="109.5,68.9 109.5,27.6 141,27.6 141,35.6 121,35.6 121,44.1 139.4,44.1 139.4,52.2 121,52.2 121,60.9 141,60.9 141,68.9 109.5,68.9"/><polygon class="st0" points="147.4,68.9 147.4,27.6 178.9,27.6 178.9,35.6 158.9,35.6 158.9,44.1 177.3,44.1 177.3,52.2 158.9,52.2 158.9,60.9 178.9,60.9 178.9,68.9 147.4,68.9"/><polygon class="st0" points="185.3,68.9 185.3,27.6 216.8,27.6 216.8,35.6 196.8,35.6 196.8,44.1 215.2,44.1 215.2,52.2 196.8,52.2 196.8,60.9 216.8,60.9 216.8,68.9 185.3,68.9"/><path d="M60.7,23.9c1.7,2.2,3.5,4.4,5.3,6.5l4.5,4.7c4.1,4.1,8.5,7.7,13.1,10.9l0.2,0c0.6,0.4,1,1.1,1.1,1.8 c0,1.5-1.8,1.8-2.7,2.6C73.2,57,65.1,65.1,58.6,74.2l-0.5,0.5c-0.5,0.3-1.2,0.2-1.7,0c-0.7-0.2-0.8-1-1.2-1.5 c-1.4-2.2-3.2-4.3-4.8-6.3c-0.9-0.9-1.7-1.9-2.6-2.9c-5.3-5.8-11.2-10.9-17.4-15.1c-0.4-0.4-0.8-1-0.6-1.7c0.2-0.8,1.1-1.3,1.7-1.7 c7.7-5.3,14.8-12.2,20.8-19.7l3.7-4.9c0.5-0.4,1.2-0.7,1.8-0.4c0.3,0.1,0.6,0.3,0.8,0.5L60.7,23.9L60.7,23.9z" style="display:none;fill-rule:evenodd;clip-rule:evenodd;fill:#006EB6;stroke:#006EB6;stroke-miterlimit:10"/><path class="st0" d="M38,94c0,0.5,0,0.6-0.1,1.2l-0.1,0.1c-3.1,0-3.5,0-6.5,0l-0.1-0.1c0-1.2,0.1-2.1,0.1-5c0-2.6,0-4.1-0.1-5.9 l0.1-0.1c3.1,0,3.7,0,6.6,0l0.1,0.1c0,0.5-0.1,0.7-0.1,1.2l-0.1,0.1c-2-0.1-2.7-0.1-4.7-0.1c0,1.4,0,1.9,0,3.3c1.9,0,2.5,0,4.4,0 l0.1,0.1c-0.1,0.5-0.1,0.7-0.1,1.2l-0.1,0.1c-1.8,0-2.2,0-4.3,0c0,1.8,0,2.3,0,3.7c2.4,0,2.9,0,4.9-0.1L38,94z"/><path class="st0" d="M48.5,95.2l-0.1,0.1c-0.9,0-1,0-1.9,0l-0.1-0.1c-0.9-1.6-1.9-3.3-2.8-4.9l-2.5-4.4l0.2,5.4 c0,0.7,0,1.3,0.1,2c0,1.3,0,1.3,0.1,2l-0.1,0.1c-0.7,0-0.8,0-1.5,0l-0.1-0.1c0.1-1.5,0.1-3,0.1-4.5c0-2.1,0-4.3-0.1-6.4l0.1-0.1 c1,0,1.1,0,2,0l0.2,0.1c1.1,1.9,2.2,3.9,3.2,5.7l1.9,3.4L47,88.2c-0.1-2.5-0.1-2.8-0.1-3.9l0.1-0.1c0.7,0,0.9,0,1.5,0l0.1,0.1 c0,1.9-0.1,3.9-0.1,5.8c0,1.5,0,3,0,4.4L48.5,95.2z"/><path class="st0" d="M55.2,89c1.1,0.5,2.7,1.2,2.7,3.2c0,1.8-1.3,3.3-4,3.3c-1.7,0-2.7-0.5-3.1-0.7l-0.1-0.1 c0.1-0.5,0.1-0.8,0.1-1.4l0.2-0.1c0.4,0.3,1.3,0.9,2.8,0.9c1.6,0,2.3-0.8,2.3-1.8c0-1.1-0.9-1.5-1.9-1.9l-0.8-0.3 c-1.1-0.5-2.6-1.2-2.6-3.1c0-0.6,0.2-1.2,0.5-1.6c0.7-1,2-1.4,3.3-1.4c1.2,0,2,0.2,2.8,0.5l0.1,0.1c-0.1,0.6-0.1,0.8-0.1,1.4 L57.1,86c-0.7-0.3-1.4-0.7-2.6-0.7c-1.3,0-2.1,0.6-2.1,1.5c0,0.7,0.5,1,0.8,1.2c0.2,0.1,0.3,0.2,1.2,0.6L55.2,89z"/><path class="st0" d="M61.6,84.3c0,1.1-0.1,2.3-0.1,5c0,3,0,4.3,0.1,5.9l-0.1,0.1c-0.7,0-0.9,0-1.7,0l-0.1-0.1 c0-1,0.1-1.8,0.1-3.8c0-2.4,0-4.7-0.1-7.1l0.1-0.1c0.7,0,0.9,0,1.7,0L61.6,84.3z"/><path class="st0" d="M68.9,84.5c0.5,1.7,1.1,3.7,1.6,5.2c0.5,1.5,1.3,3.9,1.7,5.4l-0.1,0.1c-0.8,0-1.2,0-1.8,0.1l-0.1-0.1 c-0.4-1.5-0.5-1.9-0.9-3.3c-0.6,0-1.2,0-1.9,0c-0.7,0-1.4,0-2,0c-0.5,1.5-0.5,1.9-0.9,3.2l-0.1,0.1c-0.7,0-0.8,0-1.6,0l-0.1-0.1 c0-0.2,0.1-0.3,0.2-0.5c0.6-1.7,1.2-3.4,1.7-5.1c0.9-2.8,1.3-3.8,1.7-5.3l0.1-0.1c1.1,0,1.2,0,2.2-0.1l0.1,0.1L68.9,84.5z M65.8,90.6c0.5,0,1,0,1.5,0c0.5,0,1.1,0,1.6,0l-1.5-5.3L65.8,90.6z"/><path class="st0" d="M77.4,89c1.1,0.5,2.7,1.2,2.7,3.2c0,1.8-1.3,3.3-4,3.3c-1.7,0-2.7-0.5-3.1-0.7l-0.1-0.1 c0.1-0.5,0.1-0.8,0.1-1.4l0.2-0.1c0.4,0.3,1.3,0.9,2.8,0.9c1.6,0,2.3-0.8,2.3-1.8c0-1.1-0.9-1.5-1.9-1.9l-0.8-0.3 c-1.1-0.5-2.6-1.2-2.6-3.1c0-0.6,0.2-1.2,0.5-1.6c0.7-1,2-1.4,3.3-1.4c1.2,0,2,0.2,2.8,0.5l0.1,0.1c-0.1,0.6-0.1,0.8-0.1,1.4 L79.3,86c-0.7-0.3-1.4-0.7-2.6-0.7c-1.3,0-2.1,0.6-2.1,1.5c0,0.7,0.5,1,0.8,1.2c0.2,0.1,0.3,0.2,1.2,0.6L77.4,89z"/><path class="st0" d="M90.5,89c1.1,0.5,2.7,1.2,2.7,3.2c0,1.8-1.3,3.3-4,3.3c-1.7,0-2.7-0.5-3.1-0.7l-0.1-0.1 c0.1-0.5,0.1-0.8,0.1-1.4l0.2-0.1c0.4,0.3,1.3,0.9,2.8,0.9c1.6,0,2.3-0.8,2.3-1.8c0-1.1-0.9-1.5-1.9-1.9l-0.8-0.3 C87.5,89.6,86,88.9,86,87c0-0.6,0.2-1.2,0.5-1.6c0.7-1,2-1.4,3.3-1.4c1.2,0,2,0.2,2.8,0.5l0.1,0.1c-0.1,0.6-0.1,0.8-0.1,1.4 L92.4,86c-0.7-0.3-1.4-0.7-2.6-0.7c-1.3,0-2.1,0.6-2.1,1.5c0,0.7,0.5,1,0.8,1.2c0.2,0.1,0.3,0.2,1.2,0.6L90.5,89z"/><path class="st0" d="M101.2,85.6c-1.3,0-1.5,0-2.9,0c0,1.6,0,1.8,0,3.2c0,3.9,0.1,5.5,0.1,6.4l-0.1,0.1c-0.9,0-0.9,0-1.8,0 l-0.1-0.1c0.1-2.2,0.1-4.4,0.1-6.6c0-1.6,0-2.4,0-3.1c-1.4,0-1.5,0-2.9,0.1l-0.1-0.1c0-0.5,0-0.6,0.1-1.2l0.1-0.1 c1.1,0,2.9,0,4.1,0c1.2,0,2.4,0,3.6,0l0.1,0.1c0,0.5-0.1,0.7-0.1,1.2L101.2,85.6z"/><path class="st0" d="M110.9,84.3c0,1.4,0,1.8,0,3c0,0.7,0,1.2,0,2.4l0,1.4c0,0.9,0,2.3-0.9,3.3c-0.8,0.8-2,1.2-3.2,1.2 c-2,0-3-0.8-3.4-1.3c-0.8-1-0.8-1.9-0.8-3.7v-1.6c0-2.3,0-2.5,0-4.6l0.1-0.1c0.9,0,1,0,1.8,0l0.1,0.1c-0.1,1.6-0.1,4.5-0.1,6 c0,1.6,0,2.5,0.6,3.2c0.3,0.3,0.9,0.8,2,0.8c0.4,0,1.6,0,2.2-1.2c0.3-0.7,0.3-1.6,0.3-2.8c0-1.8,0-4.1-0.1-5.9l0.1-0.1 c0.7,0,0.8,0,1.4,0L110.9,84.3z"/><path class="st0" d="M113.7,95.3l-0.1-0.1c0-1.3,0.1-2.4,0.1-4.1c0-4.4-0.1-5.7-0.1-6.8l0.1-0.1l2.3,0c1.8,0,3.5,0,4.8,0.8 c2.1,1.3,2.1,3.9,2.1,4.5c0,0.9-0.1,1.7-0.4,2.6c-1,2.5-3,3.1-4.6,3.2c-0.6,0.1-0.8,0.1-2.9,0.1L113.7,95.3z M120.5,91.7 c0.3-0.7,0.4-1.5,0.4-2.3c0-0.5,0-2.1-1.1-3.1c-0.9-0.8-2.2-0.8-2.8-0.8c-0.5,0-1,0-1.5,0c0,1,0,1.6,0,3.9c0,2.9,0,3.2,0,4.6 C117.5,94,119.6,94.1,120.5,91.7z"/><path class="st0" d="M131.5,94c0,0.5,0,0.6-0.1,1.2l-0.1,0.1c-3.1,0-3.5,0-6.5,0l-0.1-0.1c0-1.2,0.1-2.1,0.1-5 c0-2.6,0-4.1-0.1-5.9l0.1-0.1c3.1,0,3.7,0,6.6,0l0.1,0.1c0,0.5-0.1,0.7-0.1,1.2l-0.1,0.1c-2-0.1-2.7-0.1-4.7-0.1 c0,1.4,0,1.9,0,3.3c1.9,0,2.5,0,4.4,0l0.1,0.1c-0.1,0.5-0.1,0.7-0.1,1.2l-0.1,0.1c-1.8,0-2.2,0-4.3,0c0,1.8,0,2.3,0,3.7 c2.4,0,2.9,0,4.9-0.1L131.5,94z"/><path class="st0" d="M142,95.2l-0.1,0.1c-0.9,0-1,0-1.9,0l-0.1-0.1c-0.9-1.6-1.9-3.3-2.8-4.9l-2.5-4.4l0.2,5.4c0,0.7,0,1.3,0.1,2 c0,1.3,0,1.3,0.1,2l-0.1,0.1c-0.7,0-0.8,0-1.5,0l-0.1-0.1c0.1-1.5,0.1-3,0.1-4.5c0-2.1,0-4.3-0.1-6.4l0.1-0.1c1,0,1.1,0,2,0 l0.2,0.1c1.1,1.9,2.2,3.9,3.2,5.7l1.9,3.4l-0.1-5.2c-0.1-2.5-0.1-2.8-0.1-3.9l0.1-0.1c0.7,0,0.9,0,1.5,0l0.1,0.1 c0,1.9-0.1,3.9-0.1,5.8c0,1.5,0,3,0,4.4L142,95.2z"/><path class="st0" d="M150.8,85.6c-1.3,0-1.5,0-2.9,0c0,1.6,0,1.8,0,3.2c0,3.9,0.1,5.5,0.1,6.4l-0.1,0.1c-0.9,0-0.9,0-1.8,0 l-0.1-0.1c0.1-2.2,0.1-4.4,0.1-6.6c0-1.6,0-2.4,0-3.1c-1.4,0-1.5,0-2.9,0.1l-0.1-0.1c0-0.5,0-0.6,0.1-1.2l0.1-0.1 c1.1,0,2.9,0,4.1,0c1.2,0,2.4,0,3.6,0l0.1,0.1c0,0.5-0.1,0.7-0.1,1.2L150.8,85.6z"/><path class="st0" d="M156.8,95.3l-0.1-0.1c0-0.8,0-1.5,0-2.9c0-0.7,0-4,0-4.7c0-1.6,0-2.5-0.1-3.3l0.1-0.1l2.1,0 c0.3,0,0.8,0,1.2,0c0.9,0,1.9,0,2.7,0.5c0.6,0.3,1.2,1,1.2,2.1c0,0.5-0.2,2.1-2.3,2.7c0.4,0,0.9,0,1.4,0.3 c1.3,0.6,1.5,1.8,1.5,2.4c0,1.4-0.9,2.5-2.1,2.9c-0.8,0.3-1.7,0.3-2.9,0.3L156.8,95.3z M158.5,88.9c1.4,0,2.5,0,3.2-0.5 c0.4-0.3,0.6-0.8,0.6-1.4c0-0.4-0.2-0.8-0.4-1.1c-0.5-0.5-1.5-0.5-1.9-0.5c-0.5,0-1,0-1.5,0V88.9z M158.5,90.3 c0,1.8,0,2.1,0.1,3.8h0.3c1.2,0,2.1,0,2.7-0.2c0.8-0.3,1.2-0.9,1.2-1.7c0-1.8-2-1.9-2.8-1.9c-0.1,0-0.3,0-1.1,0L158.5,90.3z"/><path class="st0" d="M168.7,95.3c-0.9,0-0.9,0-1.7,0l-0.1-0.1c0-1.5,0.1-3.1,0.1-4.6c0-3.5-0.1-4.8-0.2-6.3l0.1-0.1h0.4 c0.3,0,1.1,0,1.6,0l1,0c0.9,0,1.7,0,2.5,0.3c1.2,0.4,2,1.3,2,2.8c0,1.3-0.7,2.5-2.7,3.1c0.3,0.4,1.5,2.1,1.8,2.6 c0.5,0.7,0.7,1,1.7,2.3l-0.1,0.2c-0.3,0-0.6,0-1,0c-0.3,0-0.7,0-1,0.1l-0.1-0.1c-0.1-0.1-0.1-0.2-0.2-0.3c-0.5-0.8-1-1.6-1.5-2.3 c-0.9-1.4-1-1.6-1.4-2.1c-0.5,0-0.6,0-1.1,0c0,0.9,0,3.3,0.1,4.6L168.7,95.3z M171.9,88.7c0.4-0.3,0.6-0.8,0.6-1.3 c0-0.3-0.1-0.7-0.3-1.1c-0.5-0.8-1.3-0.8-2.5-0.8c-0.2,0-0.5,0-1,0c0,1.8,0,2.1,0,3.8C169.9,89.3,171.2,89.3,171.9,88.7z"/><path class="st0" d="M181.7,84.5c0.5,1.7,1.1,3.7,1.6,5.2c0.5,1.5,1.3,3.9,1.7,5.4l-0.1,0.1c-0.8,0-1.2,0-1.8,0.1l-0.1-0.1 c-0.4-1.5-0.5-1.9-0.9-3.3c-0.6,0-1.2,0-1.9,0c-0.7,0-1.4,0-2,0c-0.5,1.5-0.5,1.9-0.9,3.2l-0.1,0.1c-0.7,0-0.8,0-1.6,0l-0.1-0.1 c0-0.2,0.1-0.3,0.2-0.5c0.6-1.7,1.2-3.4,1.7-5.1c0.9-2.8,1.3-3.8,1.7-5.3l0.1-0.1c1.1,0,1.2,0,2.2-0.1l0.1,0.1L181.7,84.5z M178.6,90.6c0.5,0,1,0,1.5,0c0.5,0,1.1,0,1.6,0l-1.5-5.3L178.6,90.6z"/><path class="st0" d="M194.9,95.2l-0.1,0.1c-0.9,0-1,0-1.9,0l-0.1-0.1c-0.9-1.6-1.9-3.3-2.8-4.9l-2.5-4.4l0.2,5.4 c0,0.7,0,1.3,0.1,2c0,1.3,0,1.3,0.1,2l-0.1,0.1c-0.7,0-0.8,0-1.5,0l-0.1-0.1c0.1-1.5,0.1-3,0.1-4.5c0-2.1,0-4.3-0.1-6.4l0.1-0.1 c1,0,1.1,0,2,0l0.2,0.1c1.1,1.9,2.2,3.9,3.2,5.7l1.9,3.4l-0.1-5.2c-0.1-2.5-0.1-2.8-0.1-3.9l0.1-0.1c0.7,0,0.9,0,1.5,0l0.1,0.1 c0,1.9-0.1,3.9-0.1,5.8c0,1.5,0,3,0,4.4L194.9,95.2z"/><path class="st0" d="M205.5,93.2c-0.1,0.7-0.1,1-0.1,1.6l-0.1,0.1c-0.4,0.2-1.4,0.7-3,0.7c-3.4,0-5.5-2.3-5.5-5.8 c0-0.8,0.1-2.7,1.4-4.2c1.3-1.5,3-1.6,4.1-1.6c1.4,0,2.4,0.3,2.9,0.5l0.1,0.1c-0.1,0.6-0.1,0.7-0.1,1.4l-0.1,0.1 c-0.3-0.2-1.1-0.7-2.5-0.7c-2.5,0-3.9,1.7-3.9,4.4c0,3,1.6,4.3,3.8,4.3c1.5,0,2.4-0.6,2.9-1L205.5,93.2z"/><path class="st0" d="M215.8,95.3c-0.8,0-0.9,0-1.8,0l-0.1-0.1c0-1.8,0.1-3.7,0.1-5.3c-0.4,0-0.8,0-1.5,0c-1.2,0-2.6,0-3.7,0 c0,3,0,4,0.1,5.2l-0.1,0.1c-0.9,0-0.9,0-1.8,0l-0.1-0.1c0.1-1.5,0.1-2.3,0.1-7.1c0-2.1,0-2.9-0.1-3.8l0.1-0.1c0.8,0,1,0,1.7,0 l0.1,0.1c0,0.9,0,2.2,0,4.4c0.8,0,1.3,0,2.3,0c1.4,0,2.1,0,2.8,0c0-3,0-3.3-0.1-4.3l0.1-0.1c0.8,0,1,0,1.7,0l0.1,0.1 c0,1.5-0.1,2.5-0.1,5.3c0,3,0.1,4.2,0.2,5.6L215.8,95.3z"/><path class="st0" d="M58.3,74.8c-0.5,0.7-1.4,0.7-1.9,0c-7.7-11.1-15.1-18.5-26.2-26.2c-0.7-0.5-0.7-1.4,0-1.9 c11.1-7.7,18.5-15,26.2-26.2c0.5-0.7,1.4-0.7,1.9,0c7.7,11.1,15,18.5,26.2,26.2c0.7,0.5,0.7,1.4,0,1.9 C73.3,56.3,65.9,63.7,58.3,74.8z"/><path d="M56.6,26.1c0.4-0.6,1-0.5,1.4,0c5.7,8.3,11.8,14.6,20,20.4c0.6,0.4,0.6,1.1,0,1.5c-1.8,1.2-3.2,2.7-4.7,4 c-2.1,1.7-3.8,3.8-5.6,5.6c-3.2,3.2-6.8,6.6-9.7,10.8c-0.4,0.6-1.1,0.6-1.5,0c-3-4.4-6.9-8-10.3-11.3c-1.7-1.7-8.2-7.8-9.8-9 c-0.6-0.4-0.5-1.1,0.1-1.5C44.8,40.7,50.9,34.4,56.6,26.1z" style="fill-rule:evenodd;clip-rule:evenodd;fill:#66A8D3"/><path d="M56.9,31.6c0.3-0.4,0.7-0.3,1,0.1c3.8,5.5,8.4,10.7,13.9,14.5c0.7,0.5,0,1.2-0.3,1.6 c-0.7,0.7-7.7,7.9-9.4,9.6C60.4,59,58.5,61.2,56,60c-1.3-0.6-2.6-1.8-3.6-2.8c-1.6-1.5-9.1-9.3-9.5-9.9c-0.3-0.3-0.3-0.9,0.1-1.1 C48.4,42.4,53,37.1,56.9,31.6z" style="fill-rule:evenodd;clip-rule:evenodd;fill:#99C5E2"/><path d="M57.1,38.1c0.1-0.2,0.4-0.1,0.5,0.1c1.9,2.8,5.1,6.8,7.8,8.7c0.4,0.3,0.4,0.9,0,1.4c-1.4,2-3.9,5.4-8.1,5.4 c-3.6,0-7.5-4-8.3-5.2c-0.6-0.9-0.1-1.4,0.2-1.5C52,45,55.2,40.9,57.1,38.1z" style="fill-rule:evenodd;clip-rule:evenodd;fill:#CCE2F0"/><polygon points="52.5,49.9 53.7,47.8 54.9,45.7 57.3,41.5 59.8,45.7 61,47.8 62.2,49.9 57.3,49.9" style="fill-rule:evenodd;clip-rule:evenodd;fill:#FFFFFF"/></svg>